{"title":"21 and Over 2013 720p BluRay QEBSx AAC20 MP4-FASM","uid":8843143,"size":1638319215,"categoryP":"video","categoryS":"hd___movies","magnet":"?xt=urn:btih:a53280416e38f7eae97c05a24d295fdd015f30cd&amp;dn=21+and+Over+2013+720p+BluRay+QEBSx+AAC20+MP4-FASM&amp;tr=udp%3A%2F%2Ftracker.openbittorrent.com%3A80&amp;tr=udp%3A%2F%2Fopen.demonii.com%3A1337&amp;tr=udp%3A%2F%2Ftracker.coppersurfer.tk%3A6969&amp;tr=udp%3A%2F%2Fexodus.desync.com%3A6969","seeders":2,"leechers":4,"uploader":"SaM","files":14,"time":1377300980,"description":" &lt;a href=&quot;\nhttp://www.imdb.com/title/tt1711425/&quot; rel=&quot;nofollow&quot; target=&quot;_NEW&quot;&gt;\nhttp://www.imdb.com/title/tt1711425/&lt;/a&gt;\n\nPlot: The night before his big medical school interview, a promising student \ncelebrates his 21st birthday with his two best friends.\n\nSUBTITLES:\nENGLISH, POLISH others from other BluRay releases on subscene.com\n\nGeneral\nComplete name                  : 21_and_Over_2013_720p_BluRay_QEBSx_AAC20_MP4-FASM.mp4\nFormat                         : MPEG-4\nFormat profile                 : Base Media\nCodec ID                       : isom\nFile size                      : 1.50 GiB\nDuration                       : 1h 33mn\nOverall bit rate mode          : Variable\nOverall bit rate               : 2 314 Kbps\nEncoded date                   : UTC 2013-07-18 08:58:15\nTagged date                    : UTC 2013-07-18 08:58:15\n\nVideo\nID                             : 1\nFormat                         : AVC\nFormat/Info                    : Advanced Video Codec\nFormat profile                 : &lt;a class=&quot;__cf_email__&quot; href=&quot;/cdn-cgi/l/email-protection&quot; data-cfemail=&quot;95ddfcf2fdd5d9a6bba4&quot;&gt;[email&amp;#160;protected]&lt;/a&gt;&lt;script cf-hash='f9e31' type=&quot;text/javascript&quot;&gt;\n/* &lt;![CDATA[ */!function(){try{var t=&quot;currentScript&quot;in document?document.currentScript:function(){for(var t=document.getElementsByTagName(&quot;script&quot;),e=t.length;e--;)if(t[e].getAttribute(&quot;cf-hash&quot;))return t[e]}();if(t&amp;&amp;t.previousSibling){var e,r,n,i,c=t.previousSibling,a=c.getAttribute(&quot;data-cfemail&quot;);if(a){for(e=&quot;&quot;,r=parseInt(a.substr(0,2),16),n=2;a.length-n;n+=2)i=parseInt(a.substr(n,2),16)^r,e+=String.fromCharCode(i);e=document.createTextNode(e),c.parentNode.replaceChild(e,c)}}}catch(u){}}();/* ]]&gt; */&lt;/script&gt;\nFormat settings, CABAC         : Yes\nFormat settings, ReFrames      : 5 frames\nCodec ID                       : avc1\nCodec ID/Info                  : Advanced Video Coding\nDuration                       : 1h 33mn\nBit rate                       : 2 175 Kbps\nMaximum bit rate               : 7 244 Kbps\nWidth                          : 1 280 pixels\nHeight                         : 528 pixels\nDisplay aspect ratio           : 2.40:1\nFrame rate mode                : Constant\nFrame rate                     : 23.976 fps\nColor space                    : YUV\nChroma subsampling             : 4:2:0\nBit depth                      : 8 bits\nScan type                      : Progressive\nBits/(Pixel*Frame)             : 0.134\nStream size                    : 1.41 GiB (94%)\nTitle                          : 1280x528.264#trackID=1:fps=23.976 - Imported with GPAC 0.5.0-rev4065\nWriting library                : FASM Quality Enhancer Bitrate Squeezer X.2 (c)2013 Fachman\nEncoded date                   : UTC 2013-07-18 08:58:15\nTagged date                    : UTC 2013-07-18 08:58:56\nColor primaries                : BT.709\nTransfer characteristics       : BT.709\nMatrix coefficients            : BT.709\n\nAudio\nID                             : 2\nFormat                         : AAC\nFormat/Info                    : Advanced Audio Codec\nFormat profile                 : LC\nCodec ID                       : 40\nDuration                       : 1h 33mn\nBit rate mode                  : Variable\nBit rate                       : 132 Kbps\nMaximum bit rate               : 202 Kbps\nChannel(s)                     : 2 channels\nChannel positions              : Front: L R\nSampling rate                  : 48.0 KHz\nCompression mode               : Lossy\nStream size                    : 89.7 MiB (6%)\nLanguage                       : English\nEncoded date                   : UTC 2013-07-18 08:58:53\nTagged date                    : UTC 2013-07-18 08:58:56\n\nMenu\n00:00:00.000                   : : Chapter01\n00:05:22.614                   : : Chapter02\n00:09:25.899                   : : Chapter03\n00:13:18.673                   : : Chapter04\n00:16:21.898                   : : Chapter05\n00:19:47.686                   : : Chapter06\n00:23:57.144                   : : Chapter07\n00:26:40.516                   : : Chapter08\n00:29:09.831                   : : Chapter09\n00:32:29.573                   : : Chapter10\n00:35:44.392                   : : Chapter11\n00:37:33.126                   : : Chapter12\n00:41:46.963                   : : Chapter13\n00:46:46.804                   : : Chapter14\n00:52:37.988                   : : Chapter15\n00:57:17.643                   : : Chapter16\n01:01:42.866                   : : Chapter17\n01:05:20.416                   : : Chapter18\n01:08:05.415                   : : Chapter19\n01:12:11.953                   : : Chapter20\n01:16:42.556                   : : Chapter21\n01:19:14.750                   : : Chapter22\n01:24:36.571                   : : Chapter23\n01:26:55.544                   : : Chapter24\n\n\n\nSCREENSHOTS (with other groups encodes also): &lt;a href=&quot;\nhttp://screenshotcomparison.com/comparison/32868/&quot; rel=&quot;nofollow&quot; target=&quot;_NEW&quot;&gt;\nhttp://screenshotcomparison.com/comparison/32868/&lt;/a&gt; &lt;a href=&quot;\nhttp://screenshotcomparison.com/comparison/32866/&quot; rel=&quot;nofollow&quot; target=&quot;_NEW&quot;&gt;\nhttp://screenshotcomparison.com/comparison/32866/&lt;/a&gt;","torrent":{"xt":"urn:btih:a53280416e38f7eae97c05a24d295fdd015f30cd","amp;dn":"21+and+Over+2013+720p+BluRay+QEBSx+AAC20+MP4-FASM","amp;tr":["udp%3A%2F%2Ftracker.openbittorrent.com%3A80","udp%3A%2F%2Fopen.demonii.com%3A1337","udp%3A%2F%2Ftracker.coppersurfer.tk%3A6969","udp%3A%2F%2Fexodus.desync.com%3A6969"],"infoHash":"a53280416e38f7eae97c05a24d295fdd015f30cd","infoHashBuffer":{"type":"Buffer","data":[165,50,128,65,110,56,247,234,233,124,5,162,77,41,95,221,1,95,48,205]},"announce":[],"urlList":[]}}